<svg version="1.0" xmlns="http://www.w3.org/2000/svg" width="1600" height="1600" viewBox="0 0 1200 1200"><path d="M270 2.1C222.2 7 172.6 24.9 132.9 51.6 115.7 63.2 104 72.9 88 89c-25 24.9-41.2 47.4-56.5 78.5C16.9 197 8.1 224.5 2.8 257L.5 270.5l-.3 321C0 820.2.2 916.1 1 925c4.8 54.1 24.3 106.7 55.8 150 47.7 65.6 117.8 108.2 199.3 121.2l14.4 2.3h659l14.4-2.3c63-10 119.1-37.6 164-80.7 26.1-25.1 46-52.5 62.2-86 16.3-33.6 25.6-67.4 28.9-104.5.8-8.9 1-104.8.8-333.5l-.3-321-2.3-13.8c-5.5-32.8-14.1-59.7-28.7-89.2-9.9-20.2-20.9-37.7-34-54-10-12.7-34.1-36.8-46.5-46.6-45.9-36.5-101.4-59.1-159.4-64.8C915.2.8 283 .8 270 2.1zm665 21.2c36 5.5 62.2 13.7 92 28.8 26.4 13.3 48.8 29.6 70.6 51.4 44.2 44.1 70 96.4 80.1 162.5 1.6 10.7 1.7 32.3 2.1 321 .2 207.3 0 315.3-.7 327-2.4 38.9-10.7 71.6-27.1 105.8-14.7 30.6-30.3 52.6-54.5 76.8-22.4 22.5-43.9 38-71.5 51.8-30.1 15-58.2 23.6-92.6 28.3-12.1 1.7-31.6 1.8-333.4 1.8-303.5 0-321.2-.1-333.5-1.8-34.5-4.8-62.4-13.3-92.5-28.3-46.7-23.3-86.9-60.5-113.9-105.6-22.4-37.4-36-81.4-39.1-125.8-1.3-19.7-1.3-614.3 0-634 6-87.9 51-165.7 124.4-215 38.4-25.8 87.3-42.5 134.3-46 6-.4 153.2-.7 327.3-.6 295.8.2 317.3.3 328 1.9z"/><path d="M575 406v141h149v-30H608v-98h102v-30H608v-93h110v-31H575v141zm203 .1v141l51.3-.4c50.8-.4 51.3-.4 62.7-3 37.3-8.4 63.4-24 84.1-50.2 23.4-29.6 32.8-69.4 27.4-115.5-7.2-62-41.5-97.9-104-109-17.5-3.1-35-4-79.7-4H778v141.1zm111.2-107.8c38.5 7.7 61.9 26.2 73.2 57.8 5.2 14.6 7 26.5 7 47.4 0 19.4-1.5 30.2-6.1 44.4-10.5 32.6-35 54.9-70.1 64.1-13.5 3.5-29.9 5-56.4 5H812V295.8l34.8.5c25.4.4 36.8.9 42.4 2zM164 404v8h44v135h18V412h43v-16H164v8zm129 67.5V547h18v-69h78v69h18V396h-18v66h-78v-66h-18v75.5zm153 0V547h81v-16h-63v-53h55v-16h-55v-50h59v-16h-77v75.5zM191.6 628.6c-9.4 1.8-20.6 7.3-25.9 12.6-2.4 2.4-5.7 7.1-7.3 10.4-2.6 5.4-2.9 6.8-2.9 16.4 0 9.9.2 11 3.3 17.2 5.5 11.1 14.3 17.8 35.8 26.8 17.7 7.4 25 14.8 22.5 23-4.4 14.8-36.2 14.7-57.8-.2l-4.3-2.9v31.2l4.3 1.9c9.6 4.2 17.4 5.4 35.7 5.4 19 0 25.5-1.1 35.3-6.1 7-3.5 14.2-10.6 17.3-17 2.1-4.3 2.8-7.3 3.2-14.7.8-15.6-3.6-25.5-15-34.1-5.8-4.3-10.1-6.6-29.9-15.8-15.1-7-20.1-13.5-16.2-21.4 5.3-10.8 29.7-12.3 48.6-3l6.7 3.3v-29.5l-5.2-1.6c-12.3-3.7-35-4.6-48.2-1.9zM274 699v70h32v-57h57v57h32V629h-32v56h-57v-56h-32v70zm153 0v70h84v-26h-52v-31h46v-26h-46v-31h49v-26h-81v70zm107 0v70h84v-26h-53v-31h46v-26h-46v-31h50v-26h-81v70zm106-.1V769h32v-54h5c6.5 0 10.8 1.8 14.7 6.3 1.7 2 9.1 13.5 16.4 25.6l13.2 22.1 34.5-.2 34.6-.3 4.8-15.3 4.9-15.2 24.6.2 24.7.3 5 15.2 5.1 15.3h17.3c10.7 0 17.2-.4 17-1-.1-.5-11.3-32-24.8-69.9L844.5 629h-38.1l-24.9 68.5c-19.3 53.1-25.1 68.3-26 67.3-.7-.7-7.2-10.8-14.5-22.3-14.8-23.4-19.2-29.2-25.8-33.7l-4.5-3.1 4.8-1.9c9.8-3.8 17.2-10.6 22.3-20.1 2.5-4.8 2.7-6 2.7-17.2 0-11.1-.2-12.4-2.7-17.1-4.5-8.5-11.9-14.1-23.8-18-4.7-1.5-10.3-1.8-39.7-2.2l-34.3-.4v70.1zm59.5-43.3c10.6 5.4 11.2 21.3 1.2 30.1-4.7 4.1-9.1 5.3-19.9 5.3H672v-38.2l11.8.4c9.4.2 12.5.7 15.7 2.4zm134.3 32c3.8 12 7.2 22.9 7.6 24.1l.7 2.3h-17.5c-9.7 0-17.6-.3-17.6-.6 0-.4 3.6-11.9 8-25.6 4.5-13.8 8.4-27.1 8.7-29.6l.6-4.7 1.3 6.1c.6 3.3 4.3 15.9 8.2 28zM911 699v70h30l.2-48.8.3-48.8 31.9 48.8 32 48.8h32.6V629h-30l-.1 47.7c0 37.4-.3 47.4-1.2 46-.7-1-14.6-22.5-31.1-47.8L945.8 629H911v70zM190 857.5c-10.7 3.1-19.4 10.3-21.8 18.4-1.7 5.6-1.4 14 .7 18.6 2.8 6.1 11.5 13.3 24.2 19.9 21.2 11 24.4 14.4 23.7 24.6-.7 10.2-6.6 14.2-20.8 14.4-9.4 0-19-2.6-25.5-6.9l-3.5-2.4v7.4c0 7.2.1 7.5 3 9 7.6 3.9 25.6 5.6 36.2 3.4 18.2-3.9 28-18.3 23.4-34.2-2.8-9.8-11.1-16.9-31.2-27-10.7-5.4-15.2-8.9-17-13.4-5.8-13.9 7.8-24.4 27.6-21.4 4.1.6 9.6 2.2 12.3 3.5l4.7 2.3v-13.8l-3.7-1.6c-5.4-2.3-25-2.8-32.3-.8zm499-.4c-12.5 2.4-25.8 12.8-31.7 24.9-8.1 16.6-8.3 40.8-.6 56.6 3.5 7.3 12.6 17.2 19.1 20.7 14.1 7.7 35.3 7.7 49.6-.1 6.8-3.7 14.4-11.5 18.3-18.7 4.8-9.2 6.6-17.3 6.6-30.5.1-18.2-3.8-29.5-13.9-40-6.2-6.5-12.5-10.3-20.9-12.5-6.4-1.6-19.2-1.8-26.5-.4zm24 11.9c9.4 2.6 17 10.2 21.1 20.9 3.4 8.5 3.9 28.5 1.1 37.8-5.2 17-16.4 25.6-33.7 25.7-11.6.1-17.5-2.2-25.1-9.8-4.4-4.5-6.7-7.7-8.3-12.1-8.7-22.8-2.1-49.4 14.7-59.2 8.5-5 20-6.3 30.2-3.3zm-312 41.5V963h13v-48h54v48h13V858h-13v46h-54v-46h-13v52.5zm505-49.8c.5 1.5 6.8 23 14 47.8 7.2 24.7 13.8 47.1 14.6 49.7l1.6 4.8h14.5l11.2-39.8c12.5-44.3 12.9-45.7 13-42.7 0 1.1 5.1 20.1 11.3 42.2l11.3 40.3h15l14.4-51.3c7.9-28.1 14.6-51.8 14.9-52.5.3-.9-1.4-1.2-6.7-1.2-3.9 0-7.1.2-7.1.5 0 .9-22 83.9-22.7 85.5-.5 1.2-.7 1.1-1-.5-.5-2.1-19.4-71.3-22-80.3l-1.5-5.3-6.1.3-6.1.3-12.3 42.5c-6.7 23.4-12.3 43.4-12.4 44.5 0 1.1-1.1-2.1-2.4-7-1.3-5-6.8-25-12.3-44.5l-9.8-35.5-7.2-.3-7.1-.3.9 2.8zM158 981v4h886v-8H158v4z"/></svg>