<svg version="1" xmlns="http://www.w3.org/2000/svg" width="682.667" height="682.667" viewBox="0 0 512 512"><path d="M82.3 1.5c-23.5 7.7-38 44.3-40 100.5-.6 18.8.6 37.5 3.6 54.1l1.8 9.6-7.3 10.9c-7.9 11.7-16.3 28-21.2 40.9-22.6 59.6-15.1 125.6 20.4 179.8 23.7 36.2 62.2 68.5 102.2 85.7 5.3 2.3 12 5.3 14.7 6.7 2.8 1.4 8.4 4.2 12.5 6.3 21.6 10.8 47.3 15.4 87 15.4s65.4-4.6 87-15.4c4.1-2.1 9.8-4.9 12.5-6.3 2.8-1.4 9.4-4.4 14.7-6.7 40-17.2 78.5-49.5 102.2-85.7 35.5-54.2 43-120.2 20.4-179.8-4.9-12.9-13.3-29.2-21.2-40.9l-7.3-10.9 1.8-9.6c7.1-39.2 3.9-90.2-7.7-120.9C449.1 10.4 435-1.3 416.5.5 389.8 3 344 30.4 313.4 62.2l-9.2 9.5-9.8-1.6c-13.8-2.1-63-2.1-76.8 0l-9.8 1.6-9.2-9.5C160.9 23.1 105.1-6.1 82.3 1.5zm21.9 21.1c20.6 6.5 52 26.4 72.9 46.2l8.2 7.7-8.1 2.4-8.1 2.3-10.3-8.8c-12.1-10.3-24.4-18.5-33.1-22.1-12.4-5.2-25.7-3.2-33.5 5.1C82.7 65.3 78 86 78 118.2l-.1 15.3-6.9 6.3-6.9 6.2-.8-5.7c-.4-3.2-.8-17.1-.8-30.8 0-19.3.5-27.5 1.8-36 4.4-26.8 12.4-46.3 21-51.6 4.3-2.6 9-2.4 18.9.7zm322.3-.6c8.8 5.4 17 25.7 21 52 2.3 14.8 3.1 45.9 1.5 60.5l-1.3 11.7-6.7-6.7-6.7-6.7-.6-21.6c-.9-33.3-5.3-48.9-16.3-58-15.1-12.5-35.5-6-66.9 21.4l-7.5 6.5-8.1-2.3-8.1-2.4 7.7-7.2c19.7-18.4 48.7-37.4 68-44.7 12.6-4.8 19.2-5.5 24-2.5zM121.8 70.4c7.5 3.8 26.4 18 25.2 18.8-.3.2-7 3.5-15 7.5-8 3.9-18.9 10.1-24.2 13.6l-9.8 6.4V111c0-17.8 4-37.1 8.6-41.7 2.2-2.2 3.1-2.4 6.6-1.9 2.2.4 6.1 1.7 8.6 3zm283.7-1c4.5 4.5 8.5 24 8.5 41.6v5.7l-9.7-6.4c-5.4-3.6-16.4-9.7-24.5-13.6-8-4-14.7-7.5-14.7-7.8-.1-1 14.1-12 20.3-15.8 10.6-6.4 16.3-7.5 20.1-3.7zm-121 19.7c29.8 3 64.3 13.6 91.2 28 35.2 18.8 65.2 46.8 84.3 78.4 47.5 78.6 27.6 178.6-47.5 238.5-8.2 6.5-28.6 20.2-29.2 19.6-.2-.1.5-3.2 1.4-6.7 2.7-9.9 2.4-33.4-.6-45.9-1.3-5.2-2.6-10.8-2.8-12.4l-.6-2.9 10.5.6c8.3.4 12.8 1.3 21.2 4.1 8.7 2.9 11.1 3.3 13.4 2.5 9.2-3.5 9.3-14.2.3-18.9-2.2-1.1-7.9-3.2-12.8-4.7-8-2.4-10.3-2.7-25-2.7l-16.1-.1-2.7-5.4c-3.2-6.6-3.3-6.5 9.1-11 18.7-6.8 43.4-9.2 62.7-6.2 9.2 1.5 12.9.5 15.2-4 2.4-4.5 1.9-8.7-1.3-11.8-2.3-2.4-4.3-3.1-11.7-4.2-12.7-1.9-35.8-1.6-47.5.6-10.7 2-28 7.4-35.3 11.2-2.7 1.3-5.3 2.1-5.7 1.6-.3-.4-2.3-2.9-4.4-5.4l-3.7-4.7 3.8-2.9c10.2-8 26.2-15.5 41-19.2 6.6-1.7 23.6-4.1 28.7-4.1.8 0 2.8-1.4 4.5-3.1 3.9-3.9 4.2-8.5.6-12.7-3.4-4-5.9-4.5-17.8-3.2-25 2.7-45.5 10.1-65.4 23.6l-9.6 6.5-2.6-2c-6.1-4.9-15.1-11.2-21.1-14.9-5.5-3.3-6.6-4.4-7.2-7.6-2.5-12.2-12.7-20.9-28.3-24.2-7.7-1.7-27.3-1.7-35 0-15.6 3.3-25.8 12-28.3 24.2-.6 3.2-1.7 4.3-7.2 7.6-6 3.7-15 10-21.1 14.9l-2.6 2-9.6-6.5c-15.4-10.4-29.5-16.5-47.7-20.6-10.1-2.2-26.9-4.1-30.2-3.3-5.8 1.4-9 7.9-6.8 13.4 1.7 3.9 5 5.5 13.5 6.3 24.2 2.3 47.3 10.7 62.8 22.9l3.8 2.9-3.7 4.7c-2.1 2.5-4.1 5-4.4 5.4-.4.5-2.9-.2-5.6-1.6-18.7-9.4-49-14.6-73-12.6-19.4 1.6-23.1 3.3-24.1 10.7-.4 3.3-.1 4.4 2.3 7.1 3.5 3.8 5.5 4 21.3 2.2 18.1-2 39.7.6 56.1 7 11.7 4.5 11.7 4.4 8.5 11l-2.7 5.4-15.6.1c-12.8 0-17.1.4-23.4 2.2-17.5 4.8-23.4 9.8-20.8 17.8 2.3 6.8 7.7 8 18.2 4 8.4-3.1 18.8-4.8 26.8-4.4 5.2.2 6.4.6 6.2 1.8-.2.8-1.6 6.4-3 12.5-3.2 13.8-3.6 34.8-.9 45.9 1 3.8 1.6 7 1.4 7.2-.6.6-14.7-8.5-24.5-15.8-19-14.3-41-38.6-52.1-57.6-16-27.7-24.5-55.6-25.7-85.2-4.3-100.9 77.3-187.6 193.1-205.1 17.5-2.6 43.9-2.9 65-.8zm-9.3 195.6c5.3 2.4 7.1 5 7 10.4-.1 4.9-2.1 8.6-7.4 13.7-12.3 12-25.3 12-37.6 0-5.3-5.1-7.3-8.8-7.4-13.7-.1-9.9 7.4-13.2 28.7-12.7 9.5.2 13 .7 16.7 2.3zm-50.8 39.5c3.8 3.7 8.6 7.1 13.7 9.5l7.9 3.8v40.1l-2.7 2.6c-7.2 6.9-18 6.3-24.8-1.2-7-7.7-7.4-8-11-8-2 0-4.5.5-5.6 1-2.1 1.2-4.9 6-4.9 8.5 0 6 9.4 16.4 18.8 20.8 11.5 5.4 23.8 4.7 34.7-1.8l5.5-3.4 5.5 3.4c10.9 6.5 23.2 7.2 34.7 1.8 9.4-4.4 18.8-14.8 18.8-20.8 0-2.5-2.8-7.3-4.9-8.5-1.1-.5-3.6-1-5.6-1-3.6 0-4 .3-11 8-6.8 7.5-17.6 8.1-24.7 1.2l-2.8-2.6v-40.1l7.9-3.8c7.8-3.7 16.8-11.3 22.2-18.5l2.4-3.3 8.2 5.6c44.9 30.8 72.6 99.6 54.6 135.6-9.5 19-31.3 31-66.7 36.6-15.8 2.5-61.4 2.5-77.2 0-38.9-6.2-61.4-20-69.6-42.8-2-5.6-2.3-8.2-2.2-20.4 0-11.9.4-15.6 2.7-24.6 8.7-33.8 30.5-66.1 56.7-84.2l8.5-5.8 2.5 3.3c1.4 1.8 5.1 5.9 8.4 9z"/><path d="M203.5 108.5c-18.7 4.1-38.6 11-54.6 19-11.2 5.7-12.9 7.3-12.9 12.6 0 3.1.6 4.7 2.9 7 4 4 7.5 3.7 17-1 15.7-8 33.5-14.1 54.6-19 10.6-2.4 13.5-4.8 13.5-11 0-8.7-5.7-10.8-20.5-7.6zm-87.1 38.6c-3.3 1.7-5.7 6.5-5 10.3 2 10.6 17.2 10.6 19.2.1 1.5-8-6.8-14-14.2-10.4zm71.1 55.6c-15.8 2.1-32.7 15.1-34.2 26.2-.5 3.6-.2 4.4 3 7.6 5.7 5.7 8.7 5 16.7-3.5 7.3-7.8 11.5-10 19.2-10 7.4.1 12.6 2.7 18.7 9.8 6 6.9 9.2 8.2 14.4 5.7 6.6-3.1 7.4-9.5 2.2-17.2-5.5-8.2-14.7-14.7-24-17.1-5.3-1.4-12.3-2-16-1.5zm125.5.4c-11.3 1.9-22.2 8.9-28.5 18.2-5.2 7.7-4.4 14.1 2.2 17.2 5.2 2.5 8.4 1.2 14.4-5.7 6.1-7.1 11.3-9.7 18.7-9.8 7.7 0 11.9 2.2 19.2 10 8 8.5 11 9.2 16.7 3.5 3.2-3.2 3.5-4 3-7.6-.7-5.4-7.4-13.8-14.9-18.9-9.2-6.1-20.4-8.6-30.8-6.9z"/></svg>