<svg id="e8058e4e-22c0-44f4-b02e-b8b274da258c" data-name="Layer 1" xmlns="http://www.w3.org/2000/svg" viewBox="0 0 500 500"><defs><style>.fd0fb4e8-a4e4-4c28-aef4-c67b329c7727{isolation:isolate}.aa3c6bfd-df86-4713-914e-187ae7ece17b{fill:#010101}</style></defs><g id="aec19ebe-84fa-4bb7-b147-136441e71c21" data-name="SHEERAN" class="fd0fb4e8-a4e4-4c28-aef4-c67b329c7727"><g class="fd0fb4e8-a4e4-4c28-aef4-c67b329c7727"><path class="aa3c6bfd-df86-4713-914e-187ae7ece17b" d="M143.61 289.17v-7.48a14.29 14.29 0 0 0 9.23 3.41 10.8 10.8 0 0 0 2.49-.25 5.71 5.71 0 0 0 1.78-.72 3.09 3.09 0 0 0 1.06-1.07 2.72 2.72 0 0 0 .35-1.35A2.94 2.94 0 0 0 158 280a6.06 6.06 0 0 0-1.53-1.43 17.87 17.87 0 0 0-2.3-1.26c-.89-.4-1.85-.82-2.88-1.24a14.73 14.73 0 0 1-5.86-4 8.78 8.78 0 0 1-1.92-5.71 9.13 9.13 0 0 1 1.05-4.5 8.93 8.93 0 0 1 2.86-3.1 13.07 13.07 0 0 1 4.2-1.79 21.65 21.65 0 0 1 5-.57 30.44 30.44 0 0 1 4.64.32 18 18 0 0 1 3.73 1v7a11.66 11.66 0 0 0-1.84-1 14.6 14.6 0 0 0-2-.74 15.65 15.65 0 0 0-2.1-.43 15.33 15.33 0 0 0-2-.14 9.94 9.94 0 0 0-2.34.25 5.9 5.9 0 0 0-1.78.69 3.46 3.46 0 0 0-1.12 1.06 2.56 2.56 0 0 0-.4 1.39 2.65 2.65 0 0 0 .45 1.51 5.18 5.18 0 0 0 1.26 1.26 13.25 13.25 0 0 0 2 1.17c.78.38 1.66.77 2.64 1.18a29.62 29.62 0 0 1 3.61 1.79 12.76 12.76 0 0 1 2.75 2.14 8.24 8.24 0 0 1 1.75 2.72 10.89 10.89 0 0 1-.45 8.28 8.54 8.54 0 0 1-2.89 3.08 12.45 12.45 0 0 1-4.24 1.7 24.81 24.81 0 0 1-5.11.51 27.71 27.71 0 0 1-5.25-.47 15.48 15.48 0 0 1-4.32-1.5zm57.39 1.29h-7.57V276.8h-13.89v13.66H172v-33.53h7.55v13.38h13.89v-13.38H201zm27.77 0h-20.1v-33.53H228v6.15h-11.78v7.46h11v6.12h-11v7.67h12.55zm25.49 0h-20.11v-33.53h19.33v6.15H241.7v7.46h11v6.12h-11v7.67h12.56zm33.5 0h-8.68l-5.21-8.63c-.39-.65-.76-1.24-1.12-1.75a8.91 8.91 0 0 0-1.09-1.32 4.28 4.28 0 0 0-1.14-.84 2.86 2.86 0 0 0-1.3-.3h-2v12.84h-7.55v-33.53h12q12.21 0 12.21 9.12a9.41 9.41 0 0 1-.54 3.24 9.21 9.21 0 0 1-1.52 2.68 9.79 9.79 0 0 1-2.37 2 12.25 12.25 0 0 1-3.1 1.36v.09a4.93 4.93 0 0 1 1.45.76 9.63 9.63 0 0 1 1.35 1.23 15.42 15.42 0 0 1 1.25 1.51c.4.53.76 1.06 1.09 1.58zm-20.58-27.87v9.33h3.28a5.43 5.43 0 0 0 3.9-1.4 4.69 4.69 0 0 0 1.5-3.53c0-2.93-1.76-4.4-5.26-4.4z"/><path class="aa3c6bfd-df86-4713-914e-187ae7ece17b" d="M320.37 290.46h-8.23l-2.38-7.46h-11.93l-2.36 7.46h-8.18l12.2-33.53h9zM308 277.2l-3.6-11.27a14.28 14.28 0 0 1-.57-3h-.18a13 13 0 0 1-.59 2.92l-3.64 11.36zm46.71 13.26h-7.62l-13.82-21.07a30.29 30.29 0 0 1-1.68-2.78h-.09c.12 1.19.18 3 .18 5.43v18.42h-7.13v-33.53h8.14L346 277.34c.61.92 1.17 1.83 1.68 2.74h.1a34.78 34.78 0 0 1-.19-4.61v-18.54h7.13z"/></g></g><g id="bf1f2986-d53c-4ad5-a27f-33d3959a88a3" data-name="SHOW" class="fd0fb4e8-a4e4-4c28-aef4-c67b329c7727"><g class="fd0fb4e8-a4e4-4c28-aef4-c67b329c7727"><path class="aa3c6bfd-df86-4713-914e-187ae7ece17b" d="M146.31 335.88v-3.47a6.71 6.71 0 0 0 1.43.95 11.24 11.24 0 0 0 1.75.71 15.56 15.56 0 0 0 1.85.45 10.82 10.82 0 0 0 1.72.15 6.67 6.67 0 0 0 4.06-1A3.77 3.77 0 0 0 158 329a4.92 4.92 0 0 0-1.23-1.37 12.07 12.07 0 0 0-1.87-1.2l-2.32-1.2q-1.32-.66-2.46-1.35a10.32 10.32 0 0 1-2-1.51 6.32 6.32 0 0 1-1.32-1.86 6.31 6.31 0 0 1 .27-5.44 6.38 6.38 0 0 1 2-2.09 9 9 0 0 1 2.8-1.23 12.7 12.7 0 0 1 3.2-.4 12.19 12.19 0 0 1 5.41.89v3.31a9.87 9.87 0 0 0-5.71-1.54 9.73 9.73 0 0 0-1.93.2 5.7 5.7 0 0 0-1.72.66 3.93 3.93 0 0 0-1.22 1.13 3.19 3.19 0 0 0-.47 1.76 3.57 3.57 0 0 0 .36 1.66 4 4 0 0 0 1.06 1.28 11 11 0 0 0 1.71 1.13c.67.36 1.45.76 2.32 1.19s1.76.91 2.56 1.4a12 12 0 0 1 2.13 1.63 7.37 7.37 0 0 1 1.44 2 5.56 5.56 0 0 1 .54 2.49 6.38 6.38 0 0 1-.73 3.15 6.07 6.07 0 0 1-2 2.1A8.85 8.85 0 0 1 156 337a15.64 15.64 0 0 1-3.41.36 12.73 12.73 0 0 1-1.47-.1 17 17 0 0 1-1.79-.28 14.4 14.4 0 0 1-1.72-.45 5.37 5.37 0 0 1-1.3-.65zm75.06 1.02h-2.94v-11.47h-13v11.47h-2.95v-25.14h2.95v11h13v-11h2.94zm52.63.42a11 11 0 0 1-8.57-3.52 13.1 13.1 0 0 1-3.21-9.17q0-6.08 3.27-9.68a11.45 11.45 0 0 1 8.93-3.61 10.78 10.78 0 0 1 8.39 3.5A13.14 13.14 0 0 1 286 324q0 6.17-3.26 9.73a11.21 11.21 0 0 1-8.74 3.59zm.21-23.32a8.11 8.11 0 0 0-6.44 2.86 12.72 12.72 0 0 0-.06 15 7.86 7.86 0 0 0 6.29 2.83 8.25 8.25 0 0 0 6.52-2.7q2.39-2.7 2.38-7.55t-2.31-7.7a7.94 7.94 0 0 0-6.37-2.74zm81.57-2.24l-7.1 25.14h-3.45l-5.17-18.38a11.15 11.15 0 0 1-.41-2.56h-.07a13.27 13.27 0 0 1-.45 2.53l-5.21 18.41h-3.42l-7.36-25.14h3.24l5.35 19.24a13 13 0 0 1 .42 2.53h.09a15.55 15.55 0 0 1 .54-2.53l5.56-19.28h2.82l5.33 19.42a13.64 13.64 0 0 1 .42 2.35h.09a14.67 14.67 0 0 1 .48-2.42l5.13-19.35zm-211.59 29.3V339h217.63v2.08z"/></g></g><g id="e3cddd5c-adde-49d4-bb10-6a1a272ccd61" data-name="Group 1"><g id="a20724dd-4a12-4976-bf68-1c0e792422be" data-name="ED" class="fd0fb4e8-a4e4-4c28-aef4-c67b329c7727"><g class="fd0fb4e8-a4e4-4c28-aef4-c67b329c7727"><path class="aa3c6bfd-df86-4713-914e-187ae7ece17b" d="M279.7 237.31H244v-67.38h34.2v7.14h-26.31v22.41h24.34v7.1h-24.34v23.59h27.81zm12.97 0v-67.38h18.61q35.63 0 35.62 32.84 0 15.61-9.89 25.07t-26.48 9.47zm7.9-60.24v53.1h10.05q13.26 0 20.63-7.1t7.38-20.07q0-25.89-27.54-25.89z"/></g></g><g id="aac5e384-8cf5-4855-9db7-850b2a8b9f01" data-name="THE" class="fd0fb4e8-a4e4-4c28-aef4-c67b329c7727"><g class="fd0fb4e8-a4e4-4c28-aef4-c67b329c7727"><path class="aa3c6bfd-df86-4713-914e-187ae7ece17b" d="M170.82 204.94h-10.45v32.37h-4.24v-32.37H145.7v-3.83h25.12zm32.9 32.37h-4.24V220.8h-18.73v16.51h-4.24v-36.2h4.24V217h18.73v-15.89h4.24zm28.69 0h-19.19v-36.2h18.38v3.83h-14.14V217h13.08v3.81h-13.08v12.67h14.95z"/></g></g></g><g id="b99000fd-1a5f-4ec8-9782-69ba07f4f1c0" data-name="Rectangle 1"><rect x="106.36" y="106.6" width="287.27" height="286.79" rx="71.82" fill="none"/><path class="aa3c6bfd-df86-4713-914e-187ae7ece17b" d="M321.82 396H178.18a74.5 74.5 0 0 1-74.42-74.42V178.42A74.5 74.5 0 0 1 178.18 104h143.64a74.5 74.5 0 0 1 74.42 74.42v143.16A74.5 74.5 0 0 1 321.82 396zM178.18 114a64.49 64.49 0 0 0-64.42 64.42v143.16A64.49 64.49 0 0 0 178.18 386h143.64a64.49 64.49 0 0 0 64.42-64.42V178.42A64.49 64.49 0 0 0 321.82 114z"/></g></svg>